<?xml version="1.0" standalone="yes"?>
<svg xmlns="http://www.w3.org/2000/svg" width="200" height="200">
<path style="fill:#ffffff; stroke:none;" d="M0 0L0 200L200 200L200 0L0 0z"/>
<path style="fill:#d6df4c; stroke:none;" d="M97 15L98 16L97 15z"/>
<path style="fill:#d9e15c; stroke:none;" d="M96 16C90.535 27.294 76.063 38.3667 65.9992 45.706C62.003 48.6204 58.0227 52.303 53 53C50.3158 56.7945 45.3497 60.1672 44.6381 65.0147C43.6264 71.907 54.9504 84.0092 61.9853 83.2037C69.9515 82.2916 75.1605 71.1369 83 69L87 66C89.7124 62.2345 94.5392 59.3118 96.2585 54.9606C99.367 47.0936 99.2363 23.7125 96 16z"/>
<path style="fill:#d8e053; stroke:none;" d="M97 16L97 53L98 53C98 42.3512 101.111 25.7978 97 16z"/>
<path style="fill:#dbe368; stroke:none;" d="M95 17L96 18L95 17z"/>
<path style="fill:#dde472; stroke:none;" d="M94 18L95 19L94 18z"/>
<path style="fill:#d8e053; stroke:none;" d="M95 18L96 19L95 18z"/>
<path style="fill:#dce46a; stroke:none;" d="M93 19L94 20L93 19z"/>
<path style="fill:#d9e157; stroke:none;" d="M94 19L95 20L94 19z"/>
<path style="fill:#d8e053; stroke:none;" d="M92 20L93 21L92 20z"/>
<path style="fill:#e0e679; stroke:none;" d="M91 21L92 22L91 21z"/>
<path style="fill:#d8e054; stroke:none;" d="M91 22L92 23L91 22z"/>
<path style="fill:#d6df4c; stroke:none;" d="M90 23L91 24L90 23M89 24L90 25L89 24M88 25L89 26L88 25z"/>
<path style="fill:#d8e053; stroke:none;" d="M87 26L88 27L87 26z"/>
<path style="fill:#d9e157; stroke:none;" d="M86 27L87 28L86 27z"/>
<path style="fill:#d8e053; stroke:none;" d="M84 28L85 29L84 28z"/>
<path style="fill:#d9e157; stroke:none;" d="M83 30L84 31L83 30z"/>
<path style="fill:#d8e053; stroke:none;" d="M82 31L83 32L82 31z"/>
<path style="fill:#d6df4c; stroke:none;" d="M81 32L82 33L81 32M80 33L81 34L80 33M79 34L80 35L79 34z"/>
<path style="fill:#02c2f2; stroke:none;" d="M122 34L123 35L122 34z"/>
<path style="fill:#d8e054; stroke:none;" d="M78 35L79 36L78 35z"/>
<path style="fill:#3eccf4; stroke:none;" d="M121 35L122 36L121 35z"/>
<path style="fill:#01c1f2; stroke:none;" d="M122 35L123 36L122 35z"/>
<path style="fill:#2ccaf4; stroke:none;" d="M123 35L124 36L123 35z"/>
<path style="fill:#d6df4c; stroke:none;" d="M76 36L77 37L76 36z"/>
<path style="fill:#02c2f2; stroke:none;" d="M120 36L106 58L121 71C127.729 72.9874 131.573 82.3028 138.576 83.4298C153.021 85.7543 156.406 64.5936 151 56L143 50L120 36z"/>
<path style="fill:#00c0f2; stroke:none;" d="M124 36L126 38L124 36z"/>
<path style="fill:#59d0f5; stroke:none;" d="M125 36L126 37L125 36z"/>
<path style="fill:#dce46a; stroke:none;" d="M75 37L76 38L75 37z"/>
<path style="fill:#59d0f5; stroke:none;" d="M119 37L120 38L119 37z"/>
<path style="fill:#00c0f2; stroke:none;" d="M120 37L121 38L120 37z"/>
<path style="fill:#36c9f3; stroke:none;" d="M126 37L127 38L126 37z"/>
<path style="fill:#dbe368; stroke:none;" d="M74 38L75 39L74 38z"/>
<path style="fill:#d9e157; stroke:none;" d="M75 38L76 39L75 38z"/>
<path style="fill:#6cd5f6; stroke:none;" d="M118 38L119 39L118 38z"/>
<path style="fill:#00c0f2; stroke:none;" d="M119 38L120 39L119 38z"/>
<path style="fill:#00bef1; stroke:none;" d="M127 38L128 39L127 38z"/>
<path style="fill:#7dd9f7; stroke:none;" d="M117 39L116 41L117 39z"/>
<path style="fill:#00bef1; stroke:none;" d="M118 39L119 40L118 39M128 39L129 40L128 39z"/>
<path style="fill:#7dd9f7; stroke:none;" d="M129 39L130 40L129 39z"/>
<path style="fill:#d6df4c; stroke:none;" d="M72 40L73 41L72 40z"/>
<path style="fill:#00bef1; stroke:none;" d="M117 40L118 41L117 40z"/>
<path style="fill:#00c0f2; stroke:none;" d="M129 40L130 41L129 40z"/>
<path style="fill:#36c9f3; stroke:none;" d="M130 40L131 41L130 40z"/>
<path style="fill:#d6df4c; stroke:none;" d="M71 41L72 42L71 41z"/>
<path style="fill:#00bef1; stroke:none;" d="M116 41L117 42L116 41z"/>
<path style="fill:#67d9f7; stroke:none;" d="M131 41L132 42L131 41z"/>
<path style="fill:#d6df4c; stroke:none;" d="M70 42L71 43L70 42z"/>
<path style="fill:#3eccf4; stroke:none;" d="M115 42L114 44L115 42z"/>
<path style="fill:#01c0f2; stroke:none;" d="M131 42L132 43L131 42z"/>
<path style="fill:#dae262; stroke:none;" d="M68 43L69 44L68 43z"/>
<path style="fill:#d9e157; stroke:none;" d="M69 43L70 44L69 43z"/>
<path style="fill:#01c1f2; stroke:none;" d="M115 43L116 44L115 43z"/>
<path style="fill:#01c0f2; stroke:none;" d="M132 43L133 44L132 43z"/>
<path style="fill:#2cc8f4; stroke:none;" d="M133 43L134 44L133 43z"/>
<path style="fill:#d8e054; stroke:none;" d="M67 44L68 45L67 44z"/>
<path style="fill:#7dd9f7; stroke:none;" d="M112 44L111 46L112 44z"/>
<path style="fill:#00bef1; stroke:none;" d="M113 44L114 45L113 44M135 44L136 45L135 44z"/>
<path style="fill:#dbe368; stroke:none;" d="M65 45L66 46L65 45z"/>
<path style="fill:#d8e053; stroke:none;" d="M66 45L67 46L66 45z"/>
<path style="fill:#00bef1; stroke:none;" d="M112 45L113 46L112 45M136 45L137 46L136 45z"/>
<path style="fill:#7dd9f7; stroke:none;" d="M137 45L138 46L137 45z"/>
<path style="fill:#d6df4c; stroke:none;" d="M64 46L65 47L64 46z"/>
<path style="fill:#6cd5f6; stroke:none;" d="M110 46L108 49L110 46z"/>
<path style="fill:#00c0f2; stroke:none;" d="M111 46L112 47L111 46M137 46L138 47L137 46z"/>
<path style="fill:#36c9f3; stroke:none;" d="M138 46L139 47L138 46z"/>
<path style="fill:#d6df4c; stroke:none;" d="M63 47L64 48L63 47z"/>
<path style="fill:#00c0f2; stroke:none;" d="M110 47L111 48L110 47z"/>
<path style="fill:#67d9f7; stroke:none;" d="M139 47L140 48L139 47z"/>
<path style="fill:#d6df4c; stroke:none;" d="M61 48L62 49L61 48z"/>
<path style="fill:#d8e053; stroke:none;" d="M62 48L63 49L62 48z"/>
<path style="fill:#00c0f2; stroke:none;" d="M109 48L110 49L109 48z"/>
<path style="fill:#01c0f2; stroke:none;" d="M139 48L140 49L139 48z"/>
<path style="fill:#d6df4c; stroke:none;" d="M60 49L61 50L60 49z"/>
<path style="fill:#00c0f2; stroke:none;" d="M108 49L109 50L108 49z"/>
<path style="fill:#00bef1; stroke:none;" d="M140 49L141 50L140 49z"/>
<path style="fill:#59d0f5; stroke:none;" d="M141 49L142 50L141 49z"/>
<path style="fill:#d8e053; stroke:none;" d="M59 50L60 51L59 50z"/>
<path style="fill:#2cc8f4; stroke:none;" d="M107 50L108 51L107 50z"/>
<path style="fill:#00c0f2; stroke:none;" d="M141 50L142 51L141 50z"/>
<path style="fill:#dce46a; stroke:none;" d="M57 51L58 52L57 51z"/>
<path style="fill:#d8e054; stroke:none;" d="M58 51L59 52L58 51z"/>
<path style="fill:#4bcff5; stroke:none;" d="M106 51L107 52L106 51z"/>
<path style="fill:#01c1f2; stroke:none;" d="M107 51L108 52L107 51z"/>
<path style="fill:#01c0f2; stroke:none;" d="M143 51L144 52L143 51z"/>
<path style="fill:#57d3f6; stroke:none;" d="M144 51L145 52L144 51z"/>
<path style="fill:#d6df4c; stroke:none;" d="M55 52L56 53L55 52z"/>
<path style="fill:#00c0f2; stroke:none;" d="M106 52L107 53L106 52M145 52L146 53L145 52z"/>
<path style="fill:#36c9f3; stroke:none;" d="M146 52L147 53L146 52z"/>
<path style="fill:#d8e053; stroke:none;" d="M54 53L55 54L54 53z"/>
<path style="fill:#d6df4c; stroke:none;" d="M97 53L98 54L97 53z"/>
<path style="fill:#59d0f5; stroke:none;" d="M105.333 53.6667L105.667 54.3333L105.333 53.6667z"/>
<path style="fill:#66d8f7; stroke:none;" d="M147 53L148 54L147 53z"/>
<path style="fill:#d6df4c; stroke:none;" d="M52 54L53 55L52 54z"/>
<path style="fill:#d8e053; stroke:none;" d="M97 54L98 55L97 54z"/>
<path style="fill:#01c0f2; stroke:none;" d="M147 54L148 55L147 54z"/>
<path style="fill:#dae25d; stroke:none;" d="M51 55L52 56L51 55z"/>
<path style="fill:#d8e053; stroke:none;" d="M96 55L97 56L96 55z"/>
<path style="fill:#7dd9f7; stroke:none;" d="M105 55L106 56L105 55z"/>
<path style="fill:#00c0f2; stroke:none;" d="M106 55L107 56L106 55M148 55L150 57L148 55z"/>
<path style="fill:#59d0f5; stroke:none;" d="M149 55L150 56L149 55z"/>
<path style="fill:#d6df4c; stroke:none;" d="M50 56L51 57L50 56M96 56L97 57L96 56z"/>
<path style="fill:#00bef1; stroke:none;" d="M106 56L107 57L106 56z"/>
<path style="fill:#d6df4c; stroke:none;" d="M49 57L50 58L49 57z"/>
<path style="fill:#d8e053; stroke:none;" d="M95 57L96 58L95 57z"/>
<path style="fill:#00c0f2; stroke:none;" d="M151 57L152 58L151 57z"/>
<path style="fill:#dde472; stroke:none;" d="M47 58L48 59L47 58z"/>
<path style="fill:#d8e053; stroke:none;" d="M48 58L49 59L48 58M94 58L95 59L94 58z"/>
<path style="fill:#01c0f2; stroke:none;" d="M107 58L108 59L107 58z"/>
<path style="fill:#00bef1; stroke:none;" d="M152 58L153 59L152 58z"/>
<path style="fill:#dbe262; stroke:none;" d="M46 59L47 60L46 59z"/>
<path style="fill:#d9e157; stroke:none;" d="M47 59L48 60L47 59z"/>
<path style="fill:#d8e054; stroke:none;" d="M92 59L93 60L92 59z"/>
<path style="fill:#dee571; stroke:none;" d="M93 59L94 60L93 59z"/>
<path style="fill:#01c0f2; stroke:none;" d="M108 59L109 60L108 59M153 59L154 60L153 59z"/>
<path style="fill:#6adaf7; stroke:none;" d="M154 59L155 60L154 59z"/>
<path style="fill:#d6df4c; stroke:none;" d="M45 60L46 61L45 60z"/>
<path style="fill:#d8e054; stroke:none;" d="M91 60L92 61L91 60z"/>
<path style="fill:#00c0f2; stroke:none;" d="M109 60L110 61L109 60M154 60L155 61L154 60z"/>
<path style="fill:#d8e053; stroke:none;" d="M45 61L46 62L45 61z"/>
<path style="fill:#d6df4c; stroke:none;" d="M44 62L45 63L44 62z"/>
<path style="fill:#d8e053; stroke:none;" d="M89 62L90 63L89 62z"/>
<path style="fill:#dde472; stroke:none;" d="M90 62L91 63L90 62z"/>
<path style="fill:#36c9f3; stroke:none;" d="M111 62L112 63L111 62z"/>
<path style="fill:#00c0f2; stroke:none;" d="M112 62L113 63L112 62z"/>
<path style="fill:#5dd4f6; stroke:none;" d="M155 62L156 63L155 62z"/>
<path style="fill:#d8e053; stroke:none;" d="M44.3333 63.6667L44.6667 64.3333L44.3333 63.6667z"/>
<path style="fill:#d6df4c; stroke:none;" d="M88 63L89 64L88 63z"/>
<path style="fill:#59d0f5; stroke:none;" d="M112 63L113 64L112 63z"/>
<path style="fill:#00bef1; stroke:none;" d="M113 63L114 64L113 63z"/>
<path style="fill:#3ecdf5; stroke:none;" d="M155 63L156 64L155 63z"/>
<path style="fill:#d6df4c; stroke:none;" d="M87 64L88 65L87 64z"/>
<path style="fill:#00bef1; stroke:none;" d="M114 64L115 65L114 64z"/>
<path style="fill:#2dc9f4; stroke:none;" d="M155 64L156 65L155 64z"/>
<path style="fill:#d8e053; stroke:none;" d="M85 65L84 67L85 65z"/>
<path style="fill:#01c0f2; stroke:none;" d="M115 65L116 66L115 65z"/>
<path style="fill:#1cc6f3; stroke:none;" d="M155 65L156 66L155 65z"/>
<path style="fill:#dde472; stroke:none;" d="M85 66L86 67L85 66z"/>
<path style="fill:#71dcf8; stroke:none;" d="M115 66L116 67L115 66z"/>
<path style="fill:#24c2ec; stroke:none;" d="M155 66L156 67L155 66z"/>
<path style="fill:#dde56c; stroke:none;" d="M83 67L84 68L83 67z"/>
<path style="fill:#36cbf4; stroke:none;" d="M117 67L118 68L117 67z"/>
<path style="fill:#01c0f2; stroke:none;" d="M118 67L119 68L118 67z"/>
<path style="fill:#2bbde5; stroke:none;" d="M155 67L156 68L155 67z"/>
<path style="fill:#cddb69; stroke:none;" d="M44 68L45 69L44 68z"/>
<path style="fill:#d8e053; stroke:none;" d="M81 68L82 69L81 68z"/>
<path style="fill:#00bef1; stroke:none;" d="M119 68L120 69L119 68z"/>
<path style="fill:#33acd1; stroke:none;" d="M155 68L156 69L155 68z"/>
<path style="fill:#a8c661; stroke:none;" d="M44 69L45 70L44 69z"/>
<path style="fill:#d8e053; stroke:none;" d="M80 69L81 70L80 69z"/>
<path style="fill:#00bef1; stroke:none;" d="M120 69L121 70L120 69z"/>
<path style="fill:#3e99bd; stroke:none;" d="M155 69L156 70L155 69z"/>
<path style="fill:#8bb546; stroke:none;" d="M44 70L44 107L45 107C45 97.4035 48.6704 78.1774 44 70z"/>
<path style="fill:#cddb69; stroke:none;" d="M45 70L46 71L45 70z"/>
<path style="fill:#d6df4c; stroke:none;" d="M79 70L80 71L79 70z"/>
<path style="fill:#00c0f2; stroke:none;" d="M122 70L123 71L122 70z"/>
<path style="fill:#22bae5; stroke:none;" d="M154 70L155 71L154 70z"/>
<path style="fill:#228fb7; stroke:none;" d="M155 70L156 71L155 70z"/>
<path style="fill:#9abe60; stroke:none;" d="M45 71L46 72L45 71z"/>
<path style="fill:#d6df4c; stroke:none;" d="M78 71L79 72L78 71z"/>
<path style="fill:#36c9f3; stroke:none;" d="M122 71L123 72L122 71z"/>
<path style="fill:#01c1f2; stroke:none;" d="M123 71L124 72L123 71z"/>
<path style="fill:#3794bc; stroke:none;" d="M154 71L155 72L154 71z"/>
<path style="fill:#2290b8; stroke:none;" d="M155 71L155 106L156 106L155 71z"/>
<path style="fill:#bbd166; stroke:none;" d="M46 72L47 73L46 72z"/>
<path style="fill:#d8e053; stroke:none;" d="M76 72L77 73L76 72z"/>
<path style="fill:#dbe368; stroke:none;" d="M77 72L78 73L77 72z"/>
<path style="fill:#36caf4; stroke:none;" d="M123 72L124 73L123 72z"/>
<path style="fill:#1ab2de; stroke:none;" d="M153 72L154 73L153 72z"/>
<path style="fill:#007fb0; stroke:none;" d="M154 72L155 73L154 72z"/>
<path style="fill:#8eb74a; stroke:none;" d="M45 73C45 83.1772 41.8101 99.4304 45 109C47.7319 117.196 61.2035 120.687 67 126C68.924 127.764 72.6516 133.232 76 131C79.4315 128.712 88.9602 118.08 91 114C95.3786 105.243 70.5567 98.7732 72 93L61 85L59 86L53 79L51 80L47 73L45 73z"/>
<path style="fill:#dbe368; stroke:none;" d="M47 73L49 75L47 73z"/>
<path style="fill:#d9e157; stroke:none;" d="M75 73L76 74L75 73z"/>
<path style="fill:#00bef1; stroke:none;" d="M124 73L125 74L124 73z"/>
<path style="fill:#0284b3; stroke:none;" d="M153 73C149.962 78.6983 143.334 85.2969 137 87C132.313 93.0726 120.467 102.982 113 105L108 108L102 114C102 116.712 97.0984 119.81 95 122C89.9094 127.312 83.8107 133.379 80.5 140C75.1064 150.787 79 171.087 79 183L80 183L101 159C102.715 153.187 115.935 139.814 122 139L128 133C128 129.599 139.287 121.862 143 122L154.667 110L155 73L153 73z"/>
<path style="fill:#8bb546; stroke:none;" d="M46 74L47 75L46 74z"/>
<path style="fill:#9abe60; stroke:none;" d="M47 74L48 75L47 74z"/>
<path style="fill:#e0e679; stroke:none;" d="M75 74L76 75L75 74z"/>
<path style="fill:#00c0f2; stroke:none;" d="M125 74L126 75L125 74z"/>
<path style="fill:#3794bc; stroke:none;" d="M152 74L153 75L152 74z"/>
<path style="fill:#8db648; stroke:none;" d="M47 75L48 76L47 75z"/>
<path style="fill:#9abe53; stroke:none;" d="M48 75L49 76L48 75z"/>
<path style="fill:#c1d45e; stroke:none;" d="M49 75L50 76L49 75z"/>
<path style="fill:#d9e157; stroke:none;" d="M72 75L73 76L72 75z"/>
<path style="fill:#dae262; stroke:none;" d="M73 75L74 76L73 75z"/>
<path style="fill:#1bc5f3; stroke:none;" d="M127 75L128 76L127 75z"/>
<path style="fill:#01c1f2; stroke:none;" d="M128 75L129 76L128 75z"/>
<path style="fill:#0ebae8; stroke:none;" d="M150 75L151 76L150 75z"/>
<path style="fill:#0d9ac8; stroke:none;" d="M151 75L152 76L151 75z"/>
<path style="fill:#0182b2; stroke:none;" d="M152 75L153 76L152 75z"/>
<path style="fill:#8bb546; stroke:none;" d="M49 76L51 78L49 76z"/>
<path style="fill:#a8c661; stroke:none;" d="M50 76L51 77L50 76z"/>
<path style="fill:#d6df4c; stroke:none;" d="M71 76L72 77L71 76z"/>
<path style="fill:#59d0f5; stroke:none;" d="M128 76L129 77L128 76z"/>
<path style="fill:#00bef1; stroke:none;" d="M129 76L130 77L129 76z"/>
<path style="fill:#22bae5; stroke:none;" d="M149 76L150 77L149 76z"/>
<path style="fill:#007fb0; stroke:none;" d="M150 76L151 77L150 76z"/>
<path style="fill:#c2d564; stroke:none;" d="M51 77L52 78L51 77z"/>
<path style="fill:#d6df4c; stroke:none;" d="M70 77L71 78L70 77z"/>
<path style="fill:#00bef1; stroke:none;" d="M130 77L131 78L130 77z"/>
<path style="fill:#22bae5; stroke:none;" d="M148 77L149 78L148 77z"/>
<path style="fill:#93ba53; stroke:none;" d="M51 78L52 79L51 78z"/>
<path style="fill:#dbe368; stroke:none;" d="M52 78L53 79L52 78z"/>
<path style="fill:#d8e053; stroke:none;" d="M69 78L70 79L69 78z"/>
<path style="fill:#01c1f2; stroke:none;" d="M131 78L132 79L131 78z"/>
<path style="fill:#12beec; stroke:none;" d="M147 78L148 79L147 78z"/>
<path style="fill:#0081b2; stroke:none;" d="M148 78L149 79L148 78z"/>
<path style="fill:#8db648; stroke:none;" d="M51 79L52 80L51 79z"/>
<path style="fill:#cddb69; stroke:none;" d="M53 79L54 80L53 79z"/>
<path style="fill:#d9e157; stroke:none;" d="M67 79L68 80L67 79z"/>
<path style="fill:#dbe368; stroke:none;" d="M68 79L69 80L68 79z"/>
<path style="fill:#71dcf8; stroke:none;" d="M131 79L132 80L131 79z"/>
<path style="fill:#119ecc; stroke:none;" d="M147 79L148 80L147 79z"/>
<path style="fill:#8bb546; stroke:none;" d="M53 80L56 83L53 80z"/>
<path style="fill:#bbd166; stroke:none;" d="M54 80L55 81L54 80z"/>
<path style="fill:#dde46e; stroke:none;" d="M67 80L68 81L67 80z"/>
<path style="fill:#36c9f3; stroke:none;" d="M132 80L133 81L132 80z"/>
<path style="fill:#00c0f2; stroke:none;" d="M133 80L134 81L133 80z"/>
<path style="fill:#1ab2de; stroke:none;" d="M146 80L145 82L146 80z"/>
<path style="fill:#0182b2; stroke:none;" d="M147 80L148 81L147 80z"/>
<path style="fill:#a8c661; stroke:none;" d="M55 81L56 82L55 81z"/>
<path style="fill:#dbe368; stroke:none;" d="M56 81L57 82L56 81z"/>
<path style="fill:#d6df4c; stroke:none;" d="M66 81L67 82L66 81z"/>
<path style="fill:#6cd5f6; stroke:none;" d="M133 81L134 82L133 81z"/>
<path style="fill:#00bef1; stroke:none;" d="M134 81L135 82L134 81z"/>
<path style="fill:#007fb0; stroke:none;" d="M146 81L147 82L146 81z"/>
<path style="fill:#cddb69; stroke:none;" d="M57 82L58 83L57 82z"/>
<path style="fill:#d8e053; stroke:none;" d="M65 82L66 83L65 82z"/>
<path style="fill:#00bef1; stroke:none;" d="M135 82L136 83L135 82z"/>
<path style="fill:#36c9f3; stroke:none;" d="M143 82L144 83L143 82z"/>
<path style="fill:#3794bc; stroke:none;" d="M144 82L145 83L144 82z"/>
<path style="fill:#007fb0; stroke:none;" d="M145 82L146 83L145 82z"/>
<path style="fill:#a3c356; stroke:none;" d="M58 83L59 84L58 83z"/>
<path style="fill:#cddb5d; stroke:none;" d="M59 83L60 84L59 83z"/>
<path style="fill:#d8e054; stroke:none;" d="M62 83L63 84L62 83z"/>
<path style="fill:#dee571; stroke:none;" d="M63 83L64 84L63 83z"/>
<path style="fill:#71dcf8; stroke:none;" d="M136 83L137 84L136 83z"/>
<path style="fill:#01c1f2; stroke:none;" d="M138 83L140 85L138 83z"/>
<path style="fill:#0ebae8; stroke:none;" d="M141 83L142 84L141 83z"/>
<path style="fill:#02a3d3; stroke:none;" d="M142 83L143 84L142 83z"/>
<path style="fill:#0a87b5; stroke:none;" d="M143 83L144 84L143 83z"/>
<path style="fill:#93ba53; stroke:none;" d="M59 84L60 85L59 84z"/>
<path style="fill:#dbe368; stroke:none;" d="M60 84L61 85L60 84z"/>
<path style="fill:#d6df4c; stroke:none;" d="M61 84L62 85L61 84z"/>
<path style="fill:#59d0f5; stroke:none;" d="M138 84L139 85L138 84z"/>
<path style="fill:#3794bc; stroke:none;" d="M140 84L141 85L140 84z"/>
<path style="fill:#007fb0; stroke:none;" d="M141 84L142 85L141 84z"/>
<path style="fill:#8db648; stroke:none;" d="M59 85L60 86L59 85z"/>
<path style="fill:#2ba2cb; stroke:none;" d="M139 85L140 86L139 85z"/>
<path style="fill:#0081b2; stroke:none;" d="M140 85L141 86L140 85z"/>
<path style="fill:#87b33c; stroke:none;" d="M61 86L62 87L61 86z"/>
<path style="fill:#66a9c9; stroke:none;" d="M138 86L139 87L138 86z"/>
<path style="fill:#0181b1; stroke:none;" d="M139 86L140 87L139 86z"/>
<path style="fill:#87b33c; stroke:none;" d="M62 87L63 88L62 87z"/>
<path style="fill:#a2c36e; stroke:none;" d="M63 87L64 88L63 87z"/>
<path style="fill:#007fb0; stroke:none;" d="M138 87L139 88L138 87z"/>
<path style="fill:#8bb546; stroke:none;" d="M63.6667 88.3333L64.3333 88.6667L63.6667 88.3333z"/>
<path style="fill:#8abcd4; stroke:none;" d="M135 88L136 89L135 88z"/>
<path style="fill:#007bae; stroke:none;" d="M136 88L137 89L136 88z"/>
<path style="fill:#85b236; stroke:none;" d="M65 89L66 90L65 89z"/>
<path style="fill:#3794bc; stroke:none;" d="M134 89L135 90L134 89z"/>
<path style="fill:#007daf; stroke:none;" d="M135 89L136 90L135 89z"/>
<path style="fill:#87b33c; stroke:none;" d="M66 90L67 91L66 90z"/>
<path style="fill:#007bae; stroke:none;" d="M133 90L134 91L133 90z"/>
<path style="fill:#0081b2; stroke:none;" d="M134 90L135 91L134 90z"/>
<path style="fill:#8db648; stroke:none;" d="M67 91L68 92L67 91z"/>
<path style="fill:#b7d18a; stroke:none;" d="M68 91L69 92L68 91z"/>
<path style="fill:#59abcb; stroke:none;" d="M131 91L132 92L131 91z"/>
<path style="fill:#017fb1; stroke:none;" d="M132 91L133 92L132 91z"/>
<path style="fill:#87b33c; stroke:none;" d="M69 92L70 93L69 92z"/>
<path style="fill:#a9c87b; stroke:none;" d="M70 92L71 93L70 92z"/>
<path style="fill:#007bae; stroke:none;" d="M130 92L131 93L130 92z"/>
<path style="fill:#0183b3; stroke:none;" d="M131 92L132 93L131 92z"/>
<path style="fill:#8bb546; stroke:none;" d="M70 93L71 94L70 93z"/>
<path style="fill:#4c9dc2; stroke:none;" d="M128 93L129 94L128 93z"/>
<path style="fill:#007daf; stroke:none;" d="M129 93L130 94L129 93z"/>
<path style="fill:#8bb546; stroke:none;" d="M71 94L72 95L71 94z"/>
<path style="fill:#85b236; stroke:none;" d="M72 94L73 95L72 94z"/>
<path style="fill:#0081b2; stroke:none;" d="M127.667 94.3333L128.333 94.6667L127.667 94.3333z"/>
<path style="fill:#85b236; stroke:none;" d="M73 95L74 96L73 95z"/>
<path style="fill:#afcb84; stroke:none;" d="M74 95L75 96L74 95z"/>
<path style="fill:#8abcd4; stroke:none;" d="M125 95L126 96L125 95z"/>
<path style="fill:#007bae; stroke:none;" d="M126 95L127 96L126 95z"/>
<path style="fill:#8bb546; stroke:none;" d="M74 96L75 97L74 96z"/>
<path style="fill:#bcd494; stroke:none;" d="M75 96L76 97L75 96z"/>
<path style="fill:#3794bc; stroke:none;" d="M124 96L125 97L124 96z"/>
<path style="fill:#007daf; stroke:none;" d="M125 96L126 97L125 96z"/>
<path style="fill:#89b441; stroke:none;" d="M75 97L76 98L75 97z"/>
<path style="fill:#59a8c9; stroke:none;" d="M123 97L124 98L123 97z"/>
<path style="fill:#0081b2; stroke:none;" d="M124 97L125 98L124 97z"/>
<path style="fill:#85b236; stroke:none;" d="M76 98L77 99L76 98z"/>
<path style="fill:#afcb84; stroke:none;" d="M77 98L78 99L77 98z"/>
<path style="fill:#6eadcb; stroke:none;" d="M122 98L123 99L122 98z"/>
<path style="fill:#017fb1; stroke:none;" d="M123 98L124 99L123 98z"/>
<path style="fill:#8bb543; stroke:none;" d="M77 99L78 100L77 99z"/>
<path style="fill:#93ba53; stroke:none;" d="M78 99L79 100L78 99z"/>
<path style="fill:#c0d791; stroke:none;" d="M79 99L80 100L79 99z"/>
<path style="fill:#6cb2d0; stroke:none;" d="M120 99L121 100L120 99z"/>
<path style="fill:#0a87b5; stroke:none;" d="M121 99L122 100L121 99z"/>
<path style="fill:#0181b1; stroke:none;" d="M122 99L123 100L122 99z"/>
<path style="fill:#85b236; stroke:none;" d="M80 100L81 101L80 100z"/>
<path style="fill:#b5cf8f; stroke:none;" d="M81 100L82 101L81 100z"/>
<path style="fill:#66a9c9; stroke:none;" d="M118 100L119 101L118 100z"/>
<path style="fill:#007bae; stroke:none;" d="M119 100L120 101L119 100z"/>
<path style="fill:#87b33c; stroke:none;" d="M81 101L82 102L81 101z"/>
<path style="fill:#9abe60; stroke:none;" d="M82 101L83 102L82 101z"/>
<path style="fill:#148cb8; stroke:none;" d="M117 101L118 102L117 101z"/>
<path style="fill:#007fb0; stroke:none;" d="M118 101L119 102L118 101z"/>
<path style="fill:#8bb546; stroke:none;" d="M82 102L83 103L82 102z"/>
<path style="fill:#afcc7f; stroke:none;" d="M83 102L84 103L83 102z"/>
<path style="fill:#007bae; stroke:none;" d="M116 102L117 103L116 102z"/>
<path style="fill:#0081b2; stroke:none;" d="M117 102L118 103L117 102z"/>
<path style="fill:#8ab540; stroke:none;" d="M83 103L84 104L83 103z"/>
<path style="fill:#3794bd; stroke:none;" d="M115 103L116 104L115 103z"/>
<path style="fill:#87b33c; stroke:none;" d="M84 104L85 105L84 104z"/>
<path style="fill:#9abe60; stroke:none;" d="M85 104L86 105L85 104z"/>
<path style="fill:#3794bc; stroke:none;" d="M114 104L115 105L114 104z"/>
<path style="fill:#0181b1; stroke:none;" d="M115 104L116 105L115 104z"/>
<path style="fill:#8bb546; stroke:none;" d="M85.6667 105.333L86.3333 105.667L85.6667 105.333z"/>
<path style="fill:#0081b2; stroke:none;" d="M114 105L115 106L114 105z"/>
<path style="fill:#85b236; stroke:none;" d="M87 106L88 107L87 106z"/>
<path style="fill:#007bae; stroke:none;" d="M112 106L113 107L112 106z"/>
<path style="fill:#3395be; stroke:none;" d="M155 106L156 107L155 106z"/>
<path style="fill:#86b339; stroke:none;" d="M44 107L45 108L44 107z"/>
<path style="fill:#8bb543; stroke:none;" d="M88 107L89 108L88 107z"/>
<path style="fill:#97bc5a; stroke:none;" d="M89 107L90 108L89 107z"/>
<path style="fill:#3796be; stroke:none;" d="M110 107L111 108L110 107z"/>
<path style="fill:#017fb1; stroke:none;" d="M111 107L112 108L111 107z"/>
<path style="fill:#409bc1; stroke:none;" d="M155 107L156 108L155 107z"/>
<path style="fill:#8bb546; stroke:none;" d="M44 108L45 109L44 108z"/>
<path style="fill:#87b33c; stroke:none;" d="M90 108L91 109L90 108z"/>
<path style="fill:#0081b2; stroke:none;" d="M109 108L110 109L109 108z"/>
<path style="fill:#62adcc; stroke:none;" d="M155 108L156 109L155 108z"/>
<path style="fill:#b5cf8f; stroke:none;" d="M44 109L45 110L44 109z"/>
<path style="fill:#87b33c; stroke:none;" d="M45 109L46 110L45 109z"/>
<path style="fill:#62accc; stroke:none;" d="M107 109L108 110L107 109z"/>
<path style="fill:#0081b2; stroke:none;" d="M108 109L109 110L108 109z"/>
<path style="fill:#7dbfd8; stroke:none;" d="M155 109L156 110L155 109z"/>
<path style="fill:#85b236; stroke:none;" d="M45 110L46 111L45 110z"/>
<path style="fill:#afcc7f; stroke:none;" d="M91 110L92 111L91 110z"/>
<path style="fill:#017fb1; stroke:none;" d="M107 110L108 111L107 110z"/>
<path style="fill:#007fb0; stroke:none;" d="M154 110L155 111L154 110z"/>
<path style="fill:#85b236; stroke:none;" d="M46 111L47 112L46 111z"/>
<path style="fill:#a9c876; stroke:none;" d="M91 111L92 112L91 111z"/>
<path style="fill:#6eadcb; stroke:none;" d="M105 111L106 112L105 111z"/>
<path style="fill:#007bae; stroke:none;" d="M106 111L107 112L106 111M154 111L155 112L154 111z"/>
<path style="fill:#a9c87b; stroke:none;" d="M46 112L47 113L46 112z"/>
<path style="fill:#87b33c; stroke:none;" d="M47 112L49 114L47 112z"/>
<path style="fill:#afcc7f; stroke:none;" d="M91 112L92 113L91 112z"/>
<path style="fill:#4c9dc2; stroke:none;" d="M104 112L105 113L104 112z"/>
<path style="fill:#007daf; stroke:none;" d="M105 112L106 113L105 112z"/>
<path style="fill:#007bae; stroke:none;" d="M153 112L154 113L153 112z"/>
<path style="fill:#a2c36e; stroke:none;" d="M47 113L48 114L47 113z"/>
<path style="fill:#c0d791; stroke:none;" d="M91 113L92 114L91 113z"/>
<path style="fill:#3794bc; stroke:none;" d="M103 113L104 114L103 113z"/>
<path style="fill:#007fb0; stroke:none;" d="M104 113L105 114L104 113z"/>
<path style="fill:#007daf; stroke:none;" d="M152 113L151 115L152 113z"/>
<path style="fill:#66a9c9; stroke:none;" d="M153 113L154 114L153 113z"/>
<path style="fill:#85b236; stroke:none;" d="M49 114L50 115L49 114z"/>
<path style="fill:#8bb546; stroke:none;" d="M90 114L91 115L90 114z"/>
<path style="fill:#0081b2; stroke:none;" d="M103 114L104 115L103 114z"/>
<path style="fill:#66a9c9; stroke:none;" d="M152 114L153 115L152 114z"/>
<path style="fill:#c0d791; stroke:none;" d="M50 115L51 116L50 115z"/>
<path style="fill:#8cb645; stroke:none;" d="M51 115L52 116L51 115z"/>
<path style="fill:#8ab540; stroke:none;" d="M89 115L90 116L89 115z"/>
<path style="fill:#bad392; stroke:none;" d="M90 115L91 116L90 115z"/>
<path style="fill:#6cb4d1; stroke:none;" d="M100 115L101 116L100 115z"/>
<path style="fill:#0183b3; stroke:none;" d="M101.667 115.333L102.333 115.667L101.667 115.333M148 115L149 116L148 115z"/>
<path style="fill:#0181b1; stroke:none;" d="M149 115L150 116L149 115z"/>
<path style="fill:#62accc; stroke:none;" d="M150 115L151 116L150 115z"/>
<path style="fill:#85b236; stroke:none;" d="M52 116L53 117L52 116M88 116L89 117L88 116z"/>
<path style="fill:#68b1cf; stroke:none;" d="M99 116L100 117L99 116z"/>
<path style="fill:#0181b1; stroke:none;" d="M147 116L148 117L147 116z"/>
<path style="fill:#3794bc; stroke:none;" d="M148 116L149 117L148 116z"/>
<path style="fill:#8bb546; stroke:none;" d="M53.6667 117.333L54.3333 117.667L53.6667 117.333z"/>
<path style="fill:#85b236; stroke:none;" d="M87 117L88 118L87 117z"/>
<path style="fill:#0181b1; stroke:none;" d="M99 117L100 118L99 117z"/>
<path style="fill:#3794bd; stroke:none;" d="M147 117L148 118L147 117z"/>
<path style="fill:#afcb84; stroke:none;" d="M54 118L55 119L54 118z"/>
<path style="fill:#85b236; stroke:none;" d="M55 118L56 119L55 118z"/>
<path style="fill:#8bb546; stroke:none;" d="M56.3333 118.667L56.6667 119.333L56.3333 118.667z"/>
<path style="fill:#87b33c; stroke:none;" d="M86 118L84 121L86 118z"/>
<path style="fill:#007bae; stroke:none;" d="M98 118L99 119L98 118z"/>
<path style="fill:#0081b2; stroke:none;" d="M145 118L146 119L145 118z"/>
<path style="fill:#007fb0; stroke:none;" d="M146 118L147 119L146 118z"/>
<path style="fill:#87b33c; stroke:none;" d="M57 119L58 120L57 119z"/>
<path style="fill:#b5cf8f; stroke:none;" d="M86 119L87 120L86 119z"/>
<path style="fill:#007bae; stroke:none;" d="M97 119L98 120L97 119M144 119L145 120L144 119z"/>
<path style="fill:#3794bc; stroke:none;" d="M145 119L146 120L145 119z"/>
<path style="fill:#afcb84; stroke:none;" d="M57 120L58 121L57 120z"/>
<path style="fill:#85b236; stroke:none;" d="M58 120L59 121L58 120z"/>
<path style="fill:#a9c87b; stroke:none;" d="M85 120L86 121L85 120z"/>
<path style="fill:#007bae; stroke:none;" d="M96 120L97 121L96 120z"/>
<path style="fill:#0081b2; stroke:none;" d="M142 120L143 121L142 120z"/>
<path style="fill:#007bae; stroke:none;" d="M143 120L144 121L143 120z"/>
<path style="fill:#89b441; stroke:none;" d="M59 121L60 122L59 121z"/>
<path style="fill:#8bb543; stroke:none;" d="M83 121L84 122L83 121z"/>
<path style="fill:#a2c36e; stroke:none;" d="M84 121L85 122L84 121z"/>
<path style="fill:#007bae; stroke:none;" d="M95 121L96 122L95 121z"/>
<path style="fill:#007fb0; stroke:none;" d="M141 121L142 122L141 121z"/>
<path style="fill:#85b236; stroke:none;" d="M60 122L61 123L60 122z"/>
<path style="fill:#8bb546; stroke:none;" d="M61 122L62 123L61 122z"/>
<path style="fill:#93ba53; stroke:none;" d="M83 122L84 123L83 122z"/>
<path style="fill:#007bae; stroke:none;" d="M94 122L95 123L94 122M140 122L141 123L140 122z"/>
<path style="fill:#6eadcb; stroke:none;" d="M141 122L142 123L141 122z"/>
<path style="fill:#9abf60; stroke:none;" d="M62 123L63 124L62 123z"/>
<path style="fill:#8ab540; stroke:none;" d="M63 123L64 124L63 123z"/>
<path style="fill:#89b441; stroke:none;" d="M82 123L83 124L82 123z"/>
<path style="fill:#6cb5d2; stroke:none;" d="M92 123L93 124L92 123z"/>
<path style="fill:#0181b1; stroke:none;" d="M93 123L94 124L93 123M138 123L139 124L138 123z"/>
<path style="fill:#49a3c7; stroke:none;" d="M139 123L140 124L139 123z"/>
<path style="fill:#87b33c; stroke:none;" d="M64 124L65 125L64 124z"/>
<path style="fill:#8bb546; stroke:none;" d="M65 124L66 125L65 124z"/>
<path style="fill:#85b236; stroke:none;" d="M81 124L82 125L81 124z"/>
<path style="fill:#78bfd9; stroke:none;" d="M91 124L92 125L91 124z"/>
<path style="fill:#0081b2; stroke:none;" d="M92 124L93 125L92 124z"/>
<path style="fill:#007bae; stroke:none;" d="M137 124L138 125L137 124z"/>
<path style="fill:#8abcd4; stroke:none;" d="M138 124L139 125L138 124z"/>
<path style="fill:#9abe60; stroke:none;" d="M65 125L66 126L65 125z"/>
<path style="fill:#87b33c; stroke:none;" d="M66 125L67 126L66 125z"/>
<path style="fill:#85b236; stroke:none;" d="M80 125L81 126L80 125z"/>
<path style="fill:#0a87b5; stroke:none;" d="M91 125L92 126L91 125z"/>
<path style="fill:#0081b2; stroke:none;" d="M135 125L136 126L135 125z"/>
<path style="fill:#007fb0; stroke:none;" d="M136 125L137 126L136 125z"/>
<path style="fill:#8ab540; stroke:none;" d="M67 126L68 127L67 126z"/>
<path style="fill:#85b236; stroke:none;" d="M79 126L80 127L79 126z"/>
<path style="fill:#3794bc; stroke:none;" d="M90 126L91 127L90 126z"/>
<path style="fill:#0183b3; stroke:none;" d="M91 126L92 127L91 126z"/>
<path style="fill:#007fb0; stroke:none;" d="M134 126L135 127L134 126z"/>
<path style="fill:#3794bc; stroke:none;" d="M135 126L136 127L135 126z"/>
<path style="fill:#b3ce85; stroke:none;" d="M67 127L68 128L67 127z"/>
<path style="fill:#8bb546; stroke:none;" d="M68 127L69 128L68 127z"/>
<path style="fill:#87b33c; stroke:none;" d="M78 127L79 128L78 127z"/>
<path style="fill:#b5cf8f; stroke:none;" d="M79 127L80 128L79 127z"/>
<path style="fill:#66a9c9; stroke:none;" d="M89 127L90 128L89 127z"/>
<path style="fill:#007daf; stroke:none;" d="M90 127L91 128L90 127z"/>
<path style="fill:#007bae; stroke:none;" d="M133 127L134 128L133 127z"/>
<path style="fill:#6eadcb; stroke:none;" d="M134 127L135 128L134 127z"/>
<path style="fill:#9abe60; stroke:none;" d="M68 128L69 129L68 128z"/>
<path style="fill:#87b33c; stroke:none;" d="M69 128L70 129L69 128z"/>
<path style="fill:#8bb546; stroke:none;" d="M77 128L76 131L77 131L77 128z"/>
<path style="fill:#a9c87b; stroke:none;" d="M78 128L79 129L78 128z"/>
<path style="fill:#6eadcb; stroke:none;" d="M88 128L89 129L88 128z"/>
<path style="fill:#007bae; stroke:none;" d="M89 128L90 129L89 128z"/>
<path style="fill:#0183b3; stroke:none;" d="M131.333 128.667L131.667 129.333L131.333 128.667z"/>
<path style="fill:#007daf; stroke:none;" d="M132 128L133 129L132 128z"/>
<path style="fill:#b5cf8f; stroke:none;" d="M69 129L70 130L69 129z"/>
<path style="fill:#85b236; stroke:none;" d="M70 129L71 130L70 129z"/>
<path style="fill:#9abe60; stroke:none;" d="M77 129L78 130L77 129z"/>
<path style="fill:#007bae; stroke:none;" d="M88 129L89 130L88 129z"/>
<path style="fill:#85b236; stroke:none;" d="M71 130L72 131L71 130z"/>
<path style="fill:#007bae; stroke:none;" d="M87 130L88 131L87 130M130 130L131 131L130 130z"/>
<path style="fill:#93ba53; stroke:none;" d="M73 131L74 132L73 131z"/>
<path style="fill:#8db648; stroke:none;" d="M74 131L75 132L74 131z"/>
<path style="fill:#9ec161; stroke:none;" d="M75 131L76 132L75 131z"/>
<path style="fill:#6db7d2; stroke:none;" d="M85 131L86 132L85 131z"/>
<path style="fill:#007eb0; stroke:none;" d="M86 131L87 132L86 131z"/>
<path style="fill:#0183b3; stroke:none;" d="M127 131L128 132L127 131z"/>
<path style="fill:#0181b1; stroke:none;" d="M128 131L129 132L128 131z"/>
<path style="fill:#59a7c9; stroke:none;" d="M129 131L130 132L129 131z"/>
<path style="fill:#a2c36e; stroke:none;" d="M74 132L75 133L74 132z"/>
<path style="fill:#3794bc; stroke:none;" d="M84 132L85 133L84 132z"/>
<path style="fill:#0081b2; stroke:none;" d="M85 132L86 133L85 132M126 132L127 133L126 132z"/>
<path style="fill:#007daf; stroke:none;" d="M84 133L85 134L84 133M125 133L126 134L125 133z"/>
<path style="fill:#3794bc; stroke:none;" d="M126 133L127 134L126 133z"/>
<path style="fill:#55a5c7; stroke:none;" d="M83 134L84 135L83 134z"/>
<path style="fill:#007bae; stroke:none;" d="M124 134L125 135L124 134z"/>
<path style="fill:#66a9c9; stroke:none;" d="M125 134L126 135L125 134z"/>
<path style="fill:#017fb1; stroke:none;" d="M83 135L84 136L83 135M123 135L124 136L123 135z"/>
<path style="fill:#8abcd4; stroke:none;" d="M124 135L125 136L124 135z"/>
<path style="fill:#0081b2; stroke:none;" d="M82.3333 136.667L82.6667 137.333L82.3333 136.667z"/>
<path style="fill:#55a5c7; stroke:none;" d="M123 136L124 137L123 136z"/>
<path style="fill:#4c9dc2; stroke:none;" d="M81 137L82 138L81 137z"/>
<path style="fill:#0081b2; stroke:none;" d="M121 137L122 138L121 137z"/>
<path style="fill:#007daf; stroke:none;" d="M122 137L123 138L122 137z"/>
<path style="fill:#007bae; stroke:none;" d="M81 138L82 139L81 138z"/>
<path style="fill:#0081b2; stroke:none;" d="M120 138L121 139L120 138z"/>
<path style="fill:#007eb0; stroke:none;" d="M80 139L81 140L80 139z"/>
<path style="fill:#0182b2; stroke:none;" d="M118 139L119 140L118 139z"/>
<path style="fill:#1b8bb7; stroke:none;" d="M119 139L120 140L119 139z"/>
<path style="fill:#88c5dc; stroke:none;" d="M120 139L121 140L120 139z"/>
<path style="fill:#007daf; stroke:none;" d="M79.3333 140.667L79.6667 141.333L79.3333 140.667M117 140L116 142L117 140z"/>
<path style="fill:#4c9dc2; stroke:none;" d="M118 140L119 141L118 140M117 141L118 142L117 141z"/>
<path style="fill:#6eadcb; stroke:none;" d="M78 142L79 143L78 142z"/>
<path style="fill:#0081b2; stroke:none;" d="M79.3333 142.667L79.6667 143.333L79.3333 142.667z"/>
<path style="fill:#017fb1; stroke:none;" d="M115 142L116 143L115 142z"/>
<path style="fill:#66a9c9; stroke:none;" d="M116 142L117 143L116 142z"/>
<path style="fill:#3794bc; stroke:none;" d="M78 143L79 144L78 143z"/>
<path style="fill:#3794bd; stroke:none;" d="M115 143L116 144L115 143z"/>
<path style="fill:#148cb8; stroke:none;" d="M78 144L78 184L79 184C79 172.566 82.411 154.512 78 144z"/>
<path style="fill:#007bae; stroke:none;" d="M114 144L112 147L114 144z"/>
<path style="fill:#8abcd4; stroke:none;" d="M114 145L115 146L114 145M113 146L114 147L113 146z"/>
<path style="fill:#017fb1; stroke:none;" d="M110 147L111 148L110 147z"/>
<path style="fill:#459cc1; stroke:none;" d="M111 147L112 148L111 147z"/>
<path style="fill:#007bae; stroke:none;" d="M109 148L110 149L109 148M108 149L109 150L108 149z"/>
<path style="fill:#017fb1; stroke:none;" d="M107 150L108 151L107 150z"/>
<path style="fill:#459cc1; stroke:none;" d="M107 151L108 152L107 151z"/>
<path style="fill:#007bae; stroke:none;" d="M106 152L105 154L106 152z"/>
<path style="fill:#6eadcb; stroke:none;" d="M106 153L107 154L106 153z"/>
<path style="fill:#007daf; stroke:none;" d="M104 154L105 155L104 154z"/>
<path style="fill:#66a9c9; stroke:none;" d="M105 154L106 155L105 154z"/>
<path style="fill:#0182b2; stroke:none;" d="M102 155L103 156L102 155z"/>
<path style="fill:#268db9; stroke:none;" d="M103 155L104 156L103 155z"/>
<path style="fill:#0081b2; stroke:none;" d="M101 156L100 158L101 156z"/>
<path style="fill:#4c9dc2; stroke:none;" d="M102 156L103 157L102 156z"/>
<path style="fill:#148cb8; stroke:none;" d="M101 157L102 158L101 157z"/>
<path style="fill:#0183b3; stroke:none;" d="M99 158L100 159L99 158z"/>
<path style="fill:#0182b2; stroke:none;" d="M99 159L100 160L99 159z"/>
<path style="fill:#6cb3d0; stroke:none;" d="M99 160L100 161L99 160z"/>
<path style="fill:#007bae; stroke:none;" d="M98 161L99 162L98 161M97 162L98 163L97 162z"/>
<path style="fill:#0181b1; stroke:none;" d="M95 163L96 164L95 163z"/>
<path style="fill:#3794bd; stroke:none;" d="M96 163L97 164L96 163z"/>
<path style="fill:#007fb0; stroke:none;" d="M94 164L95 165L94 164z"/>
<path style="fill:#4c9dc2; stroke:none;" d="M95 164L96 165L95 164z"/>
<path style="fill:#0081b2; stroke:none;" d="M93.3333 165.667L93.6667 166.333L93.3333 165.667z"/>
<path style="fill:#148cb8; stroke:none;" d="M94 165L95 166L94 165z"/>
<path style="fill:#007bae; stroke:none;" d="M92 167L93 168L92 167z"/>
<path style="fill:#017fb1; stroke:none;" d="M91 168L92 169L91 168z"/>
<path style="fill:#499ec3; stroke:none;" d="M91 169L92 170L91 169z"/>
<path style="fill:#007fb0; stroke:none;" d="M90 170L91 171L90 170z"/>
<path style="fill:#0183b3; stroke:none;" d="M88.6667 171.333L89.3333 171.667L88.6667 171.333z"/>
<path style="fill:#007daf; stroke:none;" d="M88 172L89 173L88 172z"/>
<path style="fill:#007bae; stroke:none;" d="M87 173L86 175L87 173z"/>
<path style="fill:#8abcd4; stroke:none;" d="M87 174L88 175L87 174z"/>
<path style="fill:#007fb0; stroke:none;" d="M85 175L86 176L85 175z"/>
<path style="fill:#4c9dc2; stroke:none;" d="M86 175L87 176L86 175z"/>
<path style="fill:#0081b2; stroke:none;" d="M84 176L85 177L84 176z"/>
<path style="fill:#148cb8; stroke:none;" d="M85 176L86 177L85 176z"/>
<path style="fill:#007daf; stroke:none;" d="M84 177L85 178L84 177z"/>
<path style="fill:#017fb1; stroke:none;" d="M83 178L84 179L83 178z"/>
<path style="fill:#0182b2; stroke:none;" d="M82 179L83 180L82 179z"/>
<path style="fill:#7ebad4; stroke:none;" d="M83 179L84 180L83 179z"/>
<path style="fill:#0081b2; stroke:none;" d="M81 180L82 181L81 180z"/>
<path style="fill:#148cb8; stroke:none;" d="M82 180L83 181L82 180z"/>
<path style="fill:#007daf; stroke:none;" d="M81 181L82 182L81 181z"/>
<path style="fill:#007bae; stroke:none;" d="M80 182L81 183L80 182M79 183L80 184L79 183z"/>
<path style="fill:#0284b3; stroke:none;" d="M78 184L79 185L78 184z"/>
<path style="fill:#66a9c9; stroke:none;" d="M79 184L80 185L79 184z"/>
<path style="fill:#4c9dc2; stroke:none;" d="M78 185L79 186L78 185z"/>
</svg>
